<?xml version="1.0" encoding="UTF-8"?>
<svg version="1.1" xmlns="http://www.w3.org/2000/svg" width="48" height="48">
<path d="M0 0 C3.7109611 0.31991044 4.99743948 0.7900419 7.625 3.3125 C8.24375 3.003125 8.8625 2.69375 9.5 2.375 C13.49829807 0.37585096 16.06766134 0.06835686 20.625 0.3125 C23.14885665 2.83635665 22.78675634 3.71725515 22.8125 7.1875 C22.92891036 9.88413041 22.92891036 9.88413041 23.625 12.3125 C25.16604359 13.72842933 25.16604359 13.72842933 27.125 14.5625 C30.625 16.3125 30.625 16.3125 31.8125 19.3125 C31.625 22.3125 31.625 22.3125 29.9375 24.5625 C27.625 26.3125 27.625 26.3125 25.51953125 27.109375 C23.37583912 28.16037732 23.37583912 28.16037732 23.0859375 30.625 C23.04339844 31.9553125 23.04339844 31.9553125 23 33.3125 C22.81835347 38.11914653 22.81835347 38.11914653 20.625 40.3125 C16.82622401 40.66423852 14.48139847 40.83951444 11.1875 38.8125 C10.671875 38.3175 10.15625 37.8225 9.625 37.3125 C9.00625 37.621875 8.3875 37.93125 7.75 38.25 C3.75170193 40.24914904 1.18233866 40.55664314 -3.375 40.3125 C-5.89885665 37.78864335 -5.53675634 36.90774485 -5.5625 33.4375 C-5.67891036 30.74086959 -5.67891036 30.74086959 -6.375 28.3125 C-7.91604359 26.89657067 -7.91604359 26.89657067 -9.875 26.0625 C-13.375 24.3125 -13.375 24.3125 -14.5625 21.3125 C-14.375 18.3125 -14.375 18.3125 -12.6875 16.0625 C-10.375 14.3125 -10.375 14.3125 -8.26953125 13.515625 C-6.12583912 12.46462268 -6.12583912 12.46462268 -5.8359375 10 C-5.80757812 9.113125 -5.77921875 8.22625 -5.75 7.3125 C-5.56520521 2.42254558 -5.39951726 0.4999553 0 0 Z M-2.375 3.3125 C-2.375 5.9525 -2.375 8.5925 -2.375 11.3125 C-0.04428121 11.73120553 -0.04428121 11.73120553 2.625 11.3125 C4.96130748 8.91390956 4.96130748 8.91390956 6.625 6.3125 C4.26531256 4.21500005 3.07883006 3.34344296 -0.125 3.125 C-0.8675 3.186875 -1.61 3.24875 -2.375 3.3125 Z M14.625 3.3125 C12.29045339 5.14608335 12.29045339 5.14608335 10.625 7.3125 C11.71243288 9.43172127 11.71243288 9.43172127 13.625 11.3125 C16.75086875 11.64647787 16.75086875 11.64647787 19.625 11.3125 C19.625 9.0025 19.625 6.6925 19.625 4.3125 C17.33205512 3.45275199 17.33205512 3.45275199 14.625 3.3125 Z M2.5625 15.4375 C1.43512057 18.89479692 1.64175432 20.83332298 2.625 24.3125 C3.615 25.7975 3.615 25.7975 4.625 27.3125 C7.70718937 27.70388913 9.67953113 27.94968306 12.625 27.3125 C14.88551003 25.29507918 14.88551003 25.29507918 15.625 22.3125 C15.39076872 18.40864534 14.81166686 16.59250029 12.625 13.3125 C6.95328156 12.42217586 6.95328156 12.42217586 2.5625 15.4375 Z M21.625 15.3125 C19.79839803 19.43398343 19.79839803 19.43398343 20.5 23.6875 C20.87125 24.22375 21.2425 24.76 21.625 25.3125 C23.605 24.3225 25.585 23.3325 27.625 22.3125 C27.625 20.9925 27.625 19.6725 27.625 18.3125 C25.645 17.3225 23.665 16.3325 21.625 15.3125 Z M-11.375 19.3125 C-10.2774777 22.30574263 -9.69817108 23.15860901 -6.75 24.5625 C-5.574375 24.93375 -5.574375 24.93375 -4.375 25.3125 C-2.54839803 21.19101657 -2.54839803 21.19101657 -3.25 16.9375 C-3.62125 16.40125 -3.9925 15.865 -4.375 15.3125 C-6.76675599 15.3125 -9.45998484 18.00865989 -11.375 19.3125 Z M-2.375 29.3125 C-2.375 31.9525 -2.375 34.5925 -2.375 37.3125 C1.05730448 37.04856499 1.05730448 37.04856499 4.625 36.3125 C5.285 35.3225 5.945 34.3325 6.625 33.3125 C3.89893696 30.02435401 3.89893696 30.02435401 -0.125 29.0625 C-1.23875 29.18625 -1.23875 29.18625 -2.375 29.3125 Z M12.3125 31.8125 C11.4771875 33.05 11.4771875 33.05 10.625 34.3125 C12.98468744 36.40999995 14.17116994 37.28155704 17.375 37.5 C18.1175 37.438125 18.86 37.37625 19.625 37.3125 C19.625 34.6725 19.625 32.0325 19.625 29.3125 C15.83043848 28.78547757 14.99528915 28.91218741 12.3125 31.8125 Z " fill="#00D8FF" transform="translate(15.375,3.6875)"/>
<path d="M0 0 C2.475 0.99 2.475 0.99 5 2 C5.04254356 3.99954746 5.04080783 6.00041636 5 8 C4 9 4 9 0.9375 9.0625 C-0.031875 9.041875 -1.00125 9.02125 -2 9 C-2.66 7.35 -3.32 5.7 -4 4 C-2.68 2.68 -1.36 1.36 0 0 Z " fill="#00D9FF" transform="translate(23,19)"/>
</svg>
